<svg xmlns="http://www.w3.org/2000/svg" width="32" height="32" viewBox="0 0 32 32">
    <path fill="#8493A8" fill-rule="evenodd" d="M11.79 10.123l3.373-3.75a1.123 1.123 0 0 1 1.674 0l3.375 3.75a1.125 1.125 0 0 1-1.674 1.505l-1.413-1.571v6.818a1.124 1.124 0 1 1-2.25 0v-6.818l-1.413 1.57a1.125 1.125 0 1 1-1.673-1.505M26.1 15.936c0 .689.42 1.396 1.9 1.414v1.303c-1.48.018-1.9.725-1.9 1.395 0 1.172.2 2.103.2 3.386 0 1.953-.863 2.567-2.697 2.567H22.39v-1.19h.53c1.038 0 1.325-.354 1.325-1.47 0-1.042-.11-2.084-.11-3.2 0-1.321.441-1.88 1.48-2.102v-.075c-1.039-.223-1.48-.8-1.48-2.102 0-1.191.11-2.14.11-3.2 0-1.116-.287-1.488-1.325-1.488h-.53V10h1.214c1.834 0 2.696.596 2.696 2.568 0 1.34-.199 2.158-.199 3.367m-20.2 4.13c0-.688-.42-1.395-1.9-1.413v-1.303c1.48-.018 1.9-.725 1.9-1.395 0-1.172-.199-2.102-.199-3.386 0-1.953.861-2.568 2.695-2.568h1.215v1.19h-.53c-1.038 0-1.325.355-1.325 1.47 0 1.043.11 2.085.11 3.2 0 1.322-.44 1.88-1.48 2.103v.075c1.04.223 1.48.799 1.48 2.102 0 1.19-.11 2.139-.11 3.2 0 1.116.287 1.489 1.325 1.489h.53v1.17H8.396c-1.834 0-2.695-.594-2.695-2.566 0-1.34.2-2.158.2-3.367"/>
</svg>
